{"title":"Brave.2012.4K UHD dj29","uid":9714880,"size":7209684431,"categoryP":"video","categoryS":"hd___movies","magnet":"?xt=urn:btih:40d0529ccc44d297470520126890b7a15ea3d090&amp;dn=Brave.2012.4K+UHD+dj29&amp;tr=udp%3A%2F%2Ftracker.openbittorrent.com%3A80&amp;tr=udp%3A%2F%2Fopen.demonii.com%3A1337&amp;tr=udp%3A%2F%2Ftracker.coppersurfer.tk%3A6969&amp;tr=udp%3A%2F%2Fexodus.desync.com%3A6969","seeders":0,"leechers":64,"uploader":"dj29","files":1,"time":1394142391,"description":"General\n\nComplete name                  : Brave.2012.4K UHD.mkv\nFormat                         : Matroska\nFormat version                 : Version 4 / Version 2\nFile size                      : 6.71 GiB\nDuration                       : 1h 33mn\nOverall bit rate               : 10.3 Mbps\nEncoded date                   : UTC 2014-03-06 19:47:53\nWriting application            : mkvmerge v6.8.0 ('Theme for Great Cities') 32bit built on Mar  2 2014 21:27:07\nWriting library                : libebml v1.3.0 + libmatroska v1.4.1\n\nVideo\nID                             : 1\nFormat                         : HEVC\nFormat/Info                    : High Efficiency Video Coding\nCodec ID                       : V_MPEGH/ISO/HEVC\nDuration                       : 1h 33mn\nBit rate                       : 6 095 Kbps\nWidth                          : 3 840 pixels\nHeight                         : 1 600 pixels\nDisplay aspect ratio           : 2.40:1\nFrame rate mode                : Constant\nFrame rate                     : 23.976 fps\nBits/(Pixel*Frame)             : 0.041\nStream size                    : 3.99 GiB (59%)\nLanguage                       : English\nDefault                        : Yes\nForced                         : No\n\nAudio\nID                             : 2\nFormat                         : DTS\nFormat/Info                    : Digital Theater Systems\nMode                           : 16\nFormat settings, Endianness    : Big\nCodec ID                       : A_DTS\nDuration                       : 1h 33mn\nBit rate mode                  : Constant\nBit rate                       : 3 968 Kbps\nChannel(s)                     : 6 channels\nChannel positions              : Front: L C R, Side: L R, LFE\nSampling rate                  : 48.0 KHz\nBit depth                      : 16 bits\nCompression mode               : Lossy\nStream size                    : 2.60 GiB (39%)\nLanguage                       : English\nDefault                        : Yes\nForced                         : No\n\nMenu\n00:00:00.000                   : en:Chapter 00\n00:04:22.845                   : en:Chapter 01\n00:09:17.431                   : en:Chapter 02\n00:12:53.355                   : en:Chapter 03\n00:14:00.256                   : en:Chapter 04\n00:16:10.469                   : en:Chapter 05\n00:17:36.680                   : en:Chapter 06\n00:22:55.791                   : en:Chapter 07\n00:27:22.891                   : en:Chapter 08\n00:28:51.229                   : en:Chapter 09\n00:30:54.852                   : en:Chapter 10\n00:34:00.371                   : en:Chapter 11\n00:36:03.494                   : en:Chapter 12\n00:39:06.927                   : en:Chapter 13\n00:41:55.095                   : en:Chapter 14\n00:43:27.980                   : en:Chapter 15\n00:47:05.739                   : en:Chapter 16\n00:48:22.357                   : en:Chapter 17\n00:51:04.060                   : en:Chapter 18\n00:52:33.859                   : en:Chapter 19\n00:54:01.154                   : en:Chapter 20\n00:54:45.699                   : en:Chapter 21\n00:57:30.864                   : en:Chapter 22\n00:59:00.161                   : en:Chapter 23\n01:02:48.181                   : en:Chapter 24\n01:03:27.386                   : en:Chapter 25\n01:09:57.735                   : en:Chapter 26\n01:10:37.274                   : en:Chapter 27\n01:12:35.726                   : en:Chapter 28\n01:13:39.498                   : en:Chapter 29\n01:15:35.489                   : en:Chapter 30\n01:16:59.072                   : en:Chapter 31\n01:17:37.110                   : en:Chapter 32\n01:19:48.200                   : en:Chapter 33\n01:23:16.783                   : en:Chapter 34\n01:24:38.656                   : en:Chapter 35\n01:32:52.566                   : en:Chapter 36\n\nscreenshots:\n &lt;a href=&quot;\nhttp://i.share.pho.to/7c693645_l.png&quot; rel=&quot;nofollow&quot; target=&quot;_NEW&quot;&gt;\nhttp://i.share.pho.to/7c693645_l.png&lt;/a&gt; &lt;a href=&quot;\nhttp://i.share.pho.to/1ecc5290_l.png&quot; rel=&quot;nofollow&quot; target=&quot;_NEW&quot;&gt;\nhttp://i.share.pho.to/1ecc5290_l.png&lt;/a&gt; &lt;a href=&quot;\nhttp://i.share.pho.to/e34431b6_l.png&quot; rel=&quot;nofollow&quot; target=&quot;_NEW&quot;&gt;\nhttp://i.share.pho.to/e34431b6_l.png&lt;/a&gt; &lt;a href=&quot;\nhttp://i.share.pho.to/3d24a328_l.png&quot; rel=&quot;nofollow&quot; target=&quot;_NEW&quot;&gt;\nhttp://i.share.pho.to/3d24a328_l.png&lt;/a&gt;\n","torrent":{"xt":"urn:btih:40d0529ccc44d297470520126890b7a15ea3d090","amp;dn":"Brave.2012.4K+UHD+dj29","amp;tr":["udp%3A%2F%2Ftracker.openbittorrent.com%3A80","udp%3A%2F%2Fopen.demonii.com%3A1337","udp%3A%2F%2Ftracker.coppersurfer.tk%3A6969","udp%3A%2F%2Fexodus.desync.com%3A6969"],"infoHash":"40d0529ccc44d297470520126890b7a15ea3d090","infoHashBuffer":{"type":"Buffer","data":[64,208,82,156,204,68,210,151,71,5,32,18,104,144,183,161,94,163,208,144]},"announce":[],"urlList":[]}}